PathFileType	4	(X/Y/Z)	 1.9Hzlow3min.trc
DataRate	CameraRate	NumFrames	NumMarkers	Units	OrigDataRate	OrigDataStartFrame	OrigNumFrames
200	200	10	39	m	200	376	1000
Frame#	Time	C7			LSH			RSH			MAN			RASI			LASI			HIPR			HIPL			RPSI			LPSI			COX			RTHI1			RTHI2			RTHI3			RTHI4			RLKN			RMKN			RSHA1			RSHA2			RSHA3			RSHA4			RHEEL			RMET5			RMET1			RTOE			LTHI1			LTHI2			LTHI3			LTHI4			LLKN			LMKN			LSHA1			LSHA2			LSHA3			LSHA4			LHEEL			LMET5			LMET1			LTOE			
		X1	Y1	Z1	X2	Y2	Z2	X3	Y3	Z3	X4	Y4	Z4	X5	Y5	Z5	X6	Y6	Z6	X7	Y7	Z7	X8	Y8	Z8	X9	Y9	Z9	X10	Y10	Z10	X11	Y11	Z11	X12	Y12	Z12	X13	Y13	Z13	X14	Y14	Z14	X15	Y15	Z15	X16	Y16	Z16	X17	Y17	Z17	X18	Y18	Z18	X19	Y19	Z19	X20	Y20	Z20	X21	Y21	Z21	X22	Y22	Z22	X23	Y23	Z23	X24	Y24	Z24	X25	Y25	Z25	X26	Y26	Z26	X27	Y27	Z27	X28	Y28	Z28	X29	Y29	Z29	X30	Y30	Z30	X31	Y31	Z31	X32	Y32	Z32	X33	Y33	Z33	X34	Y34	Z34	X35	Y35	Z35	X36	Y36	Z36	X37	Y37	Z37	X38	Y38	Z38	X39	Y39	Z39	
376	1.8800	-0.292791	1.514203	-0.528660	-0.235258	1.506306	-0.713818	-0.253834	1.504606	-0.345024	-0.146086	1.467440	-0.529884	-0.164997	0.994626	-0.422065	-0.170953	0.998865	-0.654286	-0.229688	1.073179	-0.369312	-0.222952	1.067331	-0.697320	-0.342717	1.060737	-0.492807	-0.345994	1.059842	-0.560955	-0.345578	1.059942	-0.529494	-0.239905	0.818961	-0.337289	-0.221483	0.762409	-0.331952	-0.158666	0.780210	-0.338222	-0.170614	0.839782	-0.345956	-0.185054	0.501663	-0.361352	-0.170827	0.493252	-0.474412	-0.282090	0.386331	-0.332710	-0.297304	0.347629	-0.343062	-0.238514	0.332267	-0.344068	-0.227366	0.370686	-0.337990	-0.388563	0.107871	-0.426507	-0.234136	0.035478	-0.363700	-0.181426	0.048943	-0.426147	-0.158202	0.038596	-0.424725	-0.248593	0.792595	-0.739236	-0.228358	0.734305	-0.744929	-0.165775	0.750056	-0.742684	-0.176926	0.809085	-0.736542	-0.198964	0.499983	-0.722363	-0.176033	0.488969	-0.617724	-0.303329	0.373794	-0.737882	-0.318039	0.336207	-0.732290	-0.257975	0.318877	-0.738750	-0.250929	0.362139	-0.743962	-0.390034	0.097588	-0.650518	-0.243922	0.037855	-0.743230	-0.184670	0.049595	-0.679473	-0.159350	0.038250	-0.686985	
377	1.8850	-0.292428	1.508834	-0.528659	-0.234665	1.500222	-0.714061	-0.253225	1.498878	-0.344712	-0.145673	1.461706	-0.529839	-0.165802	0.989448	-0.421770	-0.171784	0.993512	-0.654050	-0.230515	1.067852	-0.369015	-0.223416	1.061949	-0.697186	-0.343476	1.055614	-0.492652	-0.346772	1.054750	-0.560824	-0.346367	1.054825	-0.529336	-0.239964	0.813679	-0.337227	-0.221026	0.757269	-0.331776	-0.158388	0.775570	-0.338151	-0.170840	0.835019	-0.346035	-0.182266	0.496666	-0.361138	-0.168043	0.488406	-0.473977	-0.280564	0.382299	-0.332528	-0.296395	0.343894	-0.343075	-0.237850	0.327634	-0.344326	-0.226101	0.365847	-0.338071	-0.390713	0.104215	-0.427031	-0.235183	0.035135	-0.363489	-0.182281	0.048728	-0.426437	-0.158790	0.038424	-0.425291	-0.248485	0.787305	-0.739290	-0.227874	0.729175	-0.745257	-0.165403	0.745321	-0.742985	-0.176924	0.804239	-0.736553	-0.196299	0.495054	-0.723213	-0.173369	0.483992	-0.618666	-0.302580	0.370096	-0.738314	-0.317866	0.332777	-0.732476	-0.258109	0.314467	-0.738981	-0.250395	0.357574	-0.744464	-0.392277	0.093897	-0.650527	-0.245165	0.037467	-0.743473	-0.185980	0.049602	-0.679162	-0.160494	0.038148	-0.686604	
378	1.8900	-0.292098	1.503309	-0.528669	-0.234081	1.493968	-0.714343	-0.252620	1.492962	-0.344375	-0.145299	1.455780	-0.529799	-0.166629	0.984082	-0.421460	-0.172674	0.987973	-0.653808	-0.231397	1.062319	-0.368693	-0.223961	1.056351	-0.697057	-0.344273	1.050310	-0.492522	-0.347591	1.049461	-0.560694	-0.347192	1.049513	-0.529182	-0.240010	0.808222	-0.337113	-0.220544	0.751983	-0.331549	-0.158096	0.770803	-0.338048	-0.171076	0.830117	-0.346084	-0.179436	0.491601	-0.360939	-0.165129	0.483447	-0.473534	-0.278906	0.378253	-0.332395	-0.295348	0.340137	-0.343132	-0.237056	0.322981	-0.344609	-0.224712	0.360990	-0.338196	-0.392693	0.100447	-0.427613	-0.235968	0.034816	-0.363338	-0.182961	0.048565	-0.426800	-0.159253	0.038256	-0.425753	-0.248336	0.781818	-0.739406	-0.227311	0.723876	-0.745652	-0.164963	0.740452	-0.743292	-0.176904	0.799248	-0.736555	-0.193514	0.490070	-0.724063	-0.170421	0.478941	-0.619735	-0.301644	0.366395	-0.738796	-0.317478	0.329316	-0.732705	-0.258031	0.310058	-0.739266	-0.249673	0.353012	-0.744985	-0.394300	0.090164	-0.650614	-0.246042	0.037205	-0.743605	-0.187009	0.049616	-0.678732	-0.161393	0.038053	-0.686219	
379	1.8950	-0.291798	1.497647	-0.528675	-0.233511	1.487559	-0.714666	-0.252029	1.486880	-0.344012	-0.144986	1.449677	-0.529761	-0.167482	0.978536	-0.421137	-0.173617	0.982274	-0.653562	-0.232312	1.056590	-0.368341	-0.224593	1.050544	-0.696938	-0.345098	1.044823	-0.492390	-0.348450	1.043981	-0.560566	-0.348062	1.044013	-0.529032	-0.240043	0.802607	-0.336929	-0.220050	0.746550	-0.331251	-0.157800	0.765916	-0.337881	-0.171328	0.825085	-0.346060	-0.176575	0.486495	-0.360748	-0.162135	0.478396	-0.473104	-0.277073	0.374155	-0.332310	-0.294100	0.336333	-0.343225	-0.236064	0.318325	-0.344917	-0.223150	0.356122	-0.338358	-0.394442	0.096597	-0.428303	-0.236547	0.034522	-0.363177	-0.183445	0.048375	-0.426989	-0.159564	0.038077	-0.425971	-0.248152	0.776155	-0.739594	-0.226671	0.718423	-0.746114	-0.164459	0.735475	-0.743607	-0.176865	0.794130	-0.736567	-0.190637	0.485073	-0.724891	-0.167236	0.473850	-0.620898	-0.300421	0.362643	-0.739352	-0.316759	0.325784	-0.733018	-0.257600	0.305656	-0.739589	-0.248645	0.348459	-0.745520	-0.396033	0.086387	-0.650772	-0.246538	0.036987	-0.743813	-0.187701	0.049607	-0.678333	-0.161969	0.037934	-0.685858	
380	1.9000	-0.291524	1.491870	-0.528668	-0.232968	1.481015	-0.715031	-0.251459	1.480654	-0.343619	-0.144762	1.443423	-0.529719	-0.168369	0.972817	-0.420809	-0.174619	0.976434	-0.653311	-0.233242	1.050677	-0.367951	-0.225321	1.044534	-0.696837	-0.345959	1.039172	-0.492253	-0.349355	1.038324	-0.560433	-0.348985	1.038335	-0.528881	-0.240070	0.796850	-0.336657	-0.219559	0.740997	-0.330872	-0.157509	0.760922	-0.337615	-0.171591	0.819945	-0.345924	-0.173686	0.481355	-0.360564	-0.159092	0.473277	-0.472716	-0.275035	0.369979	-0.332262	-0.292606	0.332455	-0.343348	-0.234823	0.313651	-0.345269	-0.221373	0.351238	-0.338560	-0.395933	0.092727	-0.429115	-0.236981	0.034235	-0.362940	-0.183695	0.048233	-0.427057	-0.159657	0.037903	-0.426049	-0.247937	0.770344	-0.739861	-0.225954	0.712841	-0.746633	-0.163893	0.730407	-0.743947	-0.176815	0.788914	-0.736618	-0.187693	0.480103	-0.725680	-0.163862	0.468752	-0.622102	-0.298834	0.358796	-0.739976	-0.315622	0.322130	-0.733433	-0.256703	0.301253	-0.739926	-0.247224	0.343914	-0.746045	-0.397429	0.082582	-0.650950	-0.246793	0.036742	-0.744193	-0.188041	0.049566	-0.678052	-0.162224	0.037870	-0.685782	
381	1.9050	-0.291252	1.485999	-0.528625	-0.232488	1.474357	-0.715454	-0.250919	1.474308	-0.343189	-0.144550	1.437042	-0.529678	-0.169301	0.966939	-0.420486	-0.175676	0.970480	-0.653056	-0.234172	1.044583	-0.367520	-0.226154	1.038319	-0.696759	-0.346863	1.033369	-0.492097	-0.350320	1.032504	-0.560290	-0.349970	1.032492	-0.528724	-0.240107	0.790974	-0.336297	-0.219084	0.735334	-0.330415	-0.157225	0.755831	-0.337223	-0.171869	0.814709	-0.345656	-0.170774	0.476200	-0.360389	-0.156010	0.468130	-0.472393	-0.272786	0.365691	-0.332244	-0.290852	0.328450	-0.343511	-0.233298	0.308951	-0.345695	-0.219366	0.346339	-0.338820	-0.397166	0.088905	-0.430086	-0.237301	0.033987	-0.362681	-0.183740	0.048073	-0.427082	-0.159583	0.037713	-0.426018	-0.247692	0.764411	-0.740206	-0.225170	0.707148	-0.747200	-0.163278	0.725279	-0.744331	-0.176757	0.783631	-0.736747	-0.184694	0.475190	-0.726422	-0.160356	0.463673	-0.623290	-0.296851	0.354836	-0.740679	-0.314015	0.318327	-0.733973	-0.255282	0.296842	-0.740236	-0.245364	0.339364	-0.746528	-0.398517	0.078797	-0.651061	-0.246845	0.036480	-0.744749	-0.188084	0.049505	-0.677987	-0.162182	0.037905	-0.686078	
382	1.9100	-0.290980	1.480067	-0.528545	-0.232082	1.467611	-0.715932	-0.250419	1.467860	-0.342737	-0.144327	1.430555	-0.529636	-0.170281	0.960922	-0.420180	-0.176784	0.964436	-0.652801	-0.235092	1.038325	-0.367051	-0.227095	1.031918	-0.696707	-0.347824	1.027433	-0.491922	-0.351355	1.026542	-0.560130	-0.351022	1.026508	-0.528554	-0.240153	0.784990	-0.335889	-0.218649	0.729595	-0.329872	-0.156977	0.750650	-0.336692	-0.172174	0.809386	-0.345245	-0.167826	0.471038	-0.360232	-0.152878	0.463006	-0.472138	-0.270329	0.361276	-0.332262	-0.288827	0.324317	-0.343743	-0.231491	0.304217	-0.346229	-0.217137	0.341409	-0.339152	-0.398159	0.085198	-0.431248	-0.237549	0.033800	-0.362497	-0.183661	0.047871	-0.427108	-0.159434	0.037529	-0.425944	-0.247421	0.758382	-0.740619	-0.224328	0.701381	-0.747795	-0.162616	0.720114	-0.744781	-0.176688	0.778310	-0.736996	-0.181638	0.470346	-0.727119	-0.156768	0.458645	-0.624402	-0.294493	0.350733	-0.741462	-0.311955	0.314359	-0.734617	-0.253353	0.292406	-0.740446	-0.243077	0.334804	-0.746931	-0.399315	0.075056	-0.651021	-0.246781	0.036207	-0.745348	-0.187890	0.049413	-0.678107	-0.161968	0.037927	-0.686586	
383	1.9150	-0.290700	1.474094	-0.528422	-0.231755	1.460791	-0.716457	-0.249970	1.461339	-0.342276	-0.144082	1.423983	-0.529594	-0.171317	0.954795	-0.419901	-0.177955	0.958325	-0.652552	-0.235994	1.031924	-0.366542	-0.228143	1.025354	-0.696680	-0.348849	1.021381	-0.491705	-0.352469	1.020458	-0.559946	-0.352153	1.020398	-0.528359	-0.240231	0.778938	-0.335413	-0.218262	0.723780	-0.329255	-0.156772	0.745400	-0.336033	-0.172507	0.803991	-0.344689	-0.164795	0.465897	-0.360120	-0.149664	0.457944	-0.471947	-0.267692	0.356728	-0.332333	-0.286569	0.320064	-0.344061	-0.229435	0.299455	-0.346911	-0.214711	0.336458	-0.339589	-0.398918	0.081666	-0.432629	-0.237783	0.033681	-0.362471	-0.183514	0.047648	-0.427235	-0.159240	0.037362	-0.425872	-0.247132	0.752300	-0.741081	-0.223440	0.695571	-0.748401	-0.161926	0.714948	-0.745308	-0.176614	0.772975	-0.737367	-0.178520	0.465565	-0.727761	-0.153145	0.453681	-0.625394	-0.291806	0.346489	-0.742279	-0.309524	0.310250	-0.735306	-0.251003	0.287948	-0.740480	-0.240425	0.330218	-0.747211	-0.399934	0.071499	-0.650769	-0.246756	0.035974	-0.745884	-0.187605	0.049306	-0.678293	-0.161697	0.037970	-0.687228	
384	1.9200	-0.290411	1.468109	-0.528263	-0.231524	1.453927	-0.717018	-0.249577	1.454770	-0.341800	-0.143848	1.417376	-0.529543	-0.172412	0.948588	-0.419653	-0.179205	0.952174	-0.652308	-0.236881	1.025402	-0.366001	-0.229302	1.018648	-0.696674	-0.349946	1.015242	-0.491446	-0.353684	1.014283	-0.559731	-0.353376	1.014192	-0.528135	-0.240344	0.772837	-0.334928	-0.217927	0.717925	-0.328598	-0.156614	0.740097	-0.335268	-0.172869	0.798545	-0.344017	-0.161661	0.460799	-0.360073	-0.146335	0.453003	-0.471808	-0.264915	0.352107	-0.332472	-0.284125	0.315718	-0.344484	-0.227182	0.294686	-0.347772	-0.212126	0.331503	-0.340160	-0.399462	0.078329	-0.434231	-0.238023	0.033639	-0.362616	-0.183336	0.047468	-0.427482	-0.159008	0.037230	-0.425808	-0.246831	0.746200	-0.741571	-0.222525	0.689759	-0.749003	-0.161220	0.709807	-0.745916	-0.176544	0.767664	-0.737860	-0.175316	0.460841	-0.728360	-0.149487	0.448808	-0.626226	-0.288862	0.342144	-0.743062	-0.306814	0.306052	-0.735964	-0.248349	0.283473	-0.740290	-0.237500	0.325610	-0.747322	-0.400454	0.068235	-0.650254	-0.246835	0.035854	-0.746199	-0.187344	0.049179	-0.678319	-0.161486	0.038013	-0.687749	
385	1.9250	-0.290108	1.462139	-0.528085	-0.231384	1.447055	-0.717606	-0.249241	1.448182	-0.341324	-0.143612	1.410777	-0.529485	-0.173567	0.942340	-0.419434	-0.180544	0.946012	-0.652070	-0.237737	1.018782	-0.365444	-0.230573	1.011829	-0.696686	-0.351135	1.009042	-0.491152	-0.355017	1.008048	-0.559490	-0.354700	1.007910	-0.527881	-0.240494	0.766704	-0.334466	-0.217634	0.712045	-0.327938	-0.156505	0.734761	-0.334442	-0.173266	0.793062	-0.343265	-0.158409	0.455793	-0.360115	-0.142877	0.448241	-0.471714	-0.262047	0.347480	-0.332722	-0.281559	0.311353	-0.345048	-0.224785	0.289965	-0.348821	-0.209446	0.326598	-0.340877	-0.399811	0.075210	-0.436050	-0.238269	0.033686	-0.362916	-0.183130	0.047313	-0.427753	-0.158745	0.037130	-0.425723	-0.246527	0.740127	-0.742063	-0.221603	0.683979	-0.749585	-0.160519	0.704720	-0.746593	-0.176478	0.762405	-0.738457	-0.171979	0.456173	-0.728925	-0.145766	0.444075	-0.626888	-0.285749	0.337812	-0.743764	-0.303922	0.301881	-0.736505	-0.245512	0.279053	-0.739867	-0.234402	0.321037	-0.747262	-0.400933	0.065394	-0.649490	-0.247039	0.035867	-0.746214	-0.187208	0.049045	-0.678164	-0.161472	0.037998	-0.688096	
